<?xml version="1.0" encoding="utf-8"?>
<!-- Generator: Adobe Illustrator 25.2.1, SVG Export Plug-In . SVG Version: 6.00 Build 0)  -->
<svg version="1.1" id="Слой_1" xmlns="http://www.w3.org/2000/svg" xmlns:xlink="http://www.w3.org/1999/xlink" x="0px" y="0px"
	 viewBox="0 0 93.2 46.6" style="enable-background:new 0 0 93.2 46.6;" xml:space="preserve">
<style type="text/css">
	.st0{fill:#3FB291;}
</style>
<g id="Слой_1_1_">
</g>
<path class="st0" d="M68.6,0c-9.6,0-17.2,6-22,11.4C41.8,6,34.2,0,24.6,0C11,0,0,10.5,0,23.3s11,23.3,24.6,23.3
	c9.6,0,17.2-6,22-11.4c4.8,5.4,12.4,11.4,22,11.4c13.6,0,24.6-10.5,24.6-23.3S82.2,0,68.6,0z M24.6,32.6c-5.9,0-10.6-4.2-10.6-9.3
	S18.7,14,24.6,14c5.6,0,10.7,5.3,13.7,9.3C35.3,27.3,30.1,32.6,24.6,32.6z M68.6,32.6c-5.6,0-10.7-5.3-13.7-9.3
	c3-4,8.1-9.3,13.7-9.3c5.9,0,10.6,4.2,10.6,9.3S74.5,32.6,68.6,32.6z"/>
</svg>
